<?xml version="1.0" standalone="no"?>
<!DOCTYPE svg PUBLIC "-//W3C//DTD SVG 20010904//EN"
 "http://www.w3.org/TR/2001/REC-SVG-20010904/DTD/svg10.dtd">
<svg version="1.0" xmlns="http://www.w3.org/2000/svg"
 width="1456.000000pt" height="1456.000000pt" viewBox="0 0 1456.000000 1456.000000"
 preserveAspectRatio="xMidYMid meet">
<metadata>
Created by potrace 1.14, written by Peter Selinger 2001-2017
</metadata>
<g transform="translate(0.000000,1456.000000) scale(0.100000,-0.100000)"
fill="#000000" stroke="none">
<path d="M4628 7975 c-2 -1 -39 -6 -83 -10 -44 -4 -89 -9 -100 -10 -11 -1 -60
-6 -110 -10 -49 -5 -93 -10 -97 -11 -5 -1 -16 -2 -27 -3 -13 -1 -20 -11 -24
-38 -6 -41 -10 -58 -33 -176 -8 -42 -18 -90 -20 -105 -3 -15 -28 -142 -55
-282 -27 -140 -52 -266 -54 -280 -3 -14 -7 -36 -10 -50 -3 -14 -7 -36 -10 -50
-7 -34 -14 -69 -21 -105 -3 -16 -18 -97 -35 -180 -16 -82 -32 -165 -35 -184
-3 -18 -7 -41 -9 -50 -2 -9 -13 -63 -24 -120 -12 -57 -21 -142 -21 -188 l0
-86 148 6 c81 4 158 8 172 11 14 2 54 7 90 10 36 4 92 9 125 12 33 4 71 7 85
8 25 2 28 8 45 106 4 19 8 42 10 50 2 8 4 23 4 33 1 27 20 20 28 -10 8 -35 63
-121 94 -150 13 -11 44 -32 69 -45 42 -22 56 -23 220 -23 169 0 177 1 232 27
110 51 148 113 148 239 0 75 -1 79 -27 96 -49 30 -82 76 -118 161 -19 46 -35
87 -35 90 0 4 25 20 55 36 73 38 138 104 175 176 17 33 28 60 26 60 -3 0 0 15
5 33 14 46 13 296 -1 348 -33 120 -114 190 -242 205 -64 8 -251 8 -330 1 l-57
-6 5 27 c2 15 7 38 9 52 3 14 8 38 11 54 3 16 11 58 18 93 8 35 13 103 12 151
l-1 87 -102 2 c-56 1 -103 0 -105 -2z m126 -97 c-2 -13 -7 -36 -9 -53 -3 -16
-8 -37 -10 -45 -2 -8 -6 -32 -9 -52 -12 -83 -66 -319 -80 -353 -23 -55 -21
-57 35 -19 99 66 278 100 422 79 87 -12 177 -81 214 -163 23 -52 23 -232 0
-285 -9 -20 -15 -38 -15 -40 1 -1 -12 -21 -29 -44 -53 -73 -109 -114 -215
-157 l-37 -15 15 -53 c51 -172 112 -297 163 -337 21 -17 42 -27 46 -23 14 13
-7 -42 -29 -74 -26 -40 -100 -91 -158 -109 -25 -7 -78 -12 -120 -11 -92 3
-171 37 -218 94 -33 40 -85 141 -94 182 -3 14 -7 34 -9 45 -15 66 -25 143 -27
205 -3 74 -1 90 13 90 18 0 89 40 123 70 48 41 102 118 125 178 29 78 30 192
2 230 -41 55 -118 48 -174 -16 -28 -31 -69 -107 -75 -137 -1 -5 -7 -28 -12
-50 -6 -22 -14 -56 -17 -75 -11 -63 -85 -443 -100 -512 -8 -36 -17 -83 -20
-105 -4 -21 -8 -45 -10 -53 -3 -8 -7 -33 -11 -55 -3 -22 -7 -41 -8 -42 -5 -5
-75 -13 -236 -28 -47 -4 -136 -13 -207 -21 -39 -4 -42 -2 -38 18 3 12 7 40 11
63 3 22 7 45 8 50 2 6 6 21 9 35 3 14 18 86 32 160 14 74 28 146 30 160 3 14
8 39 10 55 3 17 8 38 11 48 3 10 8 32 10 50 8 56 12 78 48 257 19 96 37 186
39 200 3 14 16 84 31 155 14 72 27 141 30 155 2 14 7 36 10 50 3 14 8 36 10
50 14 87 40 206 47 214 4 5 25 10 46 12 21 1 67 6 103 9 36 3 85 8 110 10 157
15 185 18 189 21 14 13 29 1 25 -18z m0 -842 c-15 -30 -40 -70 -56 -88 l-29
-33 7 35 c9 46 41 116 73 160 l26 35 3 -27 c2 -15 -9 -52 -24 -82z"/>
<path d="M9088 7975 c-2 -1 -38 -6 -80 -10 -43 -3 -90 -8 -105 -10 -16 -2 -62
-6 -103 -10 -106 -9 -142 -14 -147 -18 -2 -3 -6 -15 -8 -28 -3 -13 -10 -48
-16 -78 -6 -30 -13 -64 -14 -75 -2 -12 -6 -34 -9 -51 -15 -79 -20 -100 -21
-105 -1 -3 -5 -25 -9 -50 -4 -25 -18 -99 -31 -165 -13 -66 -27 -134 -29 -151
-3 -17 -13 -66 -21 -110 -9 -43 -18 -95 -21 -114 -3 -19 -7 -41 -10 -49 -2 -8
-7 -30 -10 -50 -3 -20 -9 -52 -14 -71 -5 -19 -11 -55 -14 -81 -3 -25 -8 -52
-10 -60 -11 -28 -18 -126 -22 -292 -5 -183 -3 -192 58 -269 29 -37 90 -72 143
-83 58 -11 279 -5 335 10 69 18 127 58 165 116 31 46 31 41 26 186 -1 13 -10
24 -23 29 -58 18 -69 52 -47 148 10 44 21 97 24 116 3 19 10 53 15 75 5 22 11
56 14 75 8 47 12 67 51 265 18 94 36 190 40 215 4 24 8 47 10 50 2 3 6 21 9
40 3 19 15 82 27 140 11 58 22 116 25 130 2 14 5 34 7 45 20 92 28 170 25 225
l-3 65 -102 2 c-56 1 -103 0 -105 -2z m127 -98 c-3 -12 -7 -33 -10 -47 -8 -39
-15 -72 -20 -105 -3 -16 -8 -43 -12 -60 -3 -16 -7 -37 -8 -45 -1 -8 -5 -26 -8
-40 -5 -21 -37 -192 -51 -270 -2 -14 -16 -83 -30 -155 -24 -124 -34 -175 -42
-220 -2 -11 -6 -33 -9 -50 -18 -89 -37 -184 -41 -210 -3 -16 -10 -47 -15 -67
-30 -117 -30 -225 1 -268 12 -16 32 -33 45 -36 33 -8 22 -38 -35 -95 -62 -62
-144 -89 -251 -84 -117 5 -183 44 -233 139 -24 45 -25 56 -21 140 3 50 7 107
10 126 6 47 14 99 21 135 3 17 7 41 9 55 3 20 35 182 50 251 2 9 6 34 9 55 4
22 8 46 11 54 5 16 14 63 19 95 4 22 53 284 61 325 4 22 14 75 31 167 3 16 10
48 15 73 6 25 12 58 15 74 2 16 5 30 7 32 4 4 78 13 162 20 39 3 81 7 95 9 14
3 59 7 100 11 41 3 76 7 77 8 1 1 13 2 27 4 21 1 24 -2 21 -21z"/>
<path d="M3287 7883 c-1 0 -24 -4 -52 -7 -75 -10 -79 -11 -92 -19 -7 -5 -13
-6 -13 -3 0 7 -103 -29 -159 -56 -73 -36 -152 -91 -203 -144 -124 -128 -150
-207 -144 -449 4 -169 15 -215 71 -300 22 -33 106 -115 117 -115 5 0 8 -3 8
-7 0 -5 -24 -8 -53 -9 -175 -3 -273 -74 -295 -214 -10 -64 -6 -274 6 -311 34
-101 187 -187 362 -204 63 -6 356 -6 405 1 133 17 245 54 350 115 100 59 151
103 209 179 75 100 89 150 91 325 1 101 -3 164 -12 194 -25 84 -84 163 -169
227 -21 16 -41 32 -44 35 -3 3 -23 16 -45 27 -22 12 -35 22 -30 22 6 1 60 3
121 4 127 4 183 23 239 80 65 68 70 84 70 256 0 144 -2 158 -23 192 -61 98
-180 156 -357 174 -53 5 -354 12 -358 7z m253 -87 c106 -6 167 -20 248 -58
100 -48 162 -136 162 -231 0 -47 -30 -123 -63 -159 -72 -79 -183 -108 -312
-84 -55 11 -56 11 -38 59 20 56 20 190 -1 238 -8 20 -30 49 -47 63 -27 23 -40
27 -83 25 -144 -6 -250 -139 -223 -279 5 -30 48 -88 88 -121 40 -34 220 -153
249 -166 25 -11 153 -108 184 -139 38 -38 74 -96 92 -148 20 -55 24 -162 8
-209 -7 -20 -13 -40 -13 -42 1 -23 -62 -122 -109 -172 -156 -168 -381 -253
-653 -248 -74 1 -152 6 -174 10 -112 20 -219 77 -263 139 -39 54 -46 79 -44
151 5 162 87 249 255 268 32 4 175 -18 185 -28 2 -2 -4 -30 -13 -62 -35 -119
-15 -261 42 -299 67 -43 185 -13 256 66 60 65 71 117 41 188 -29 70 -93 121
-284 226 -195 108 -270 188 -312 331 -18 58 -17 210 1 243 6 12 9 22 6 22 -12
0 53 113 95 163 59 71 124 119 235 173 83 40 255 90 279 81 6 -2 19 -1 28 2
18 6 32 6 178 -3z m-125 -254 c16 -11 41 -54 48 -80 3 -13 0 -40 -7 -60 -7
-20 -14 -57 -15 -82 -3 -47 -10 -64 -18 -42 -3 6 -10 12 -16 12 -15 0 -98 77
-120 111 -16 25 -16 27 11 62 25 33 88 87 101 87 3 0 11 -4 16 -8z m-313 -924
c7 -7 30 -25 50 -40 20 -16 46 -41 58 -57 l20 -30 -30 -35 c-17 -19 -47 -45
-66 -57 -34 -21 -36 -21 -50 -3 -39 50 -47 101 -24 144 6 11 11 36 12 55 1 37
8 43 30 23z"/>
<path d="M7398 7855 c-3 -3 -171 -16 -203 -16 -51 2 -62 -7 -70 -56 -10 -61
-22 -120 -31 -158 -1 -5 -5 -30 -9 -55 -3 -25 -11 -65 -17 -90 -16 -71 -25
-118 -43 -229 -3 -19 -7 -37 -9 -40 -2 -3 -7 -28 -10 -55 -4 -27 -9 -52 -11
-56 -2 -4 -7 -29 -11 -56 -3 -27 -8 -52 -10 -55 -2 -3 -6 -21 -9 -40 -3 -19
-12 -68 -20 -109 -8 -41 -17 -88 -20 -105 -3 -16 -8 -41 -11 -55 -5 -26 -21
-108 -29 -150 -3 -14 -8 -41 -11 -60 -3 -19 -8 -38 -10 -41 -2 -4 -6 -26 -9
-49 -3 -24 -8 -47 -11 -52 -12 -19 -12 -228 0 -229 6 0 25 -2 41 -4 205 -26
675 -39 865 -23 306 26 520 161 607 386 24 61 27 81 30 242 4 217 -9 271 -84
351 l-24 27 45 48 c84 88 91 114 91 309 -1 158 -2 173 -24 218 -13 26 -41 64
-63 85 -41 39 -146 86 -213 96 -23 4 -52 9 -65 12 -26 6 -646 15 -652 9z m572
-89 c31 -8 80 -17 100 -20 18 -3 40 -11 101 -38 111 -49 164 -140 163 -283 0
-90 -23 -148 -86 -216 -42 -45 -127 -104 -174 -119 l-36 -12 56 -23 c101 -41
165 -107 199 -205 18 -52 17 -199 -2 -269 -48 -173 -190 -314 -387 -381 -32
-11 -60 -20 -62 -20 -1 1 -15 -1 -30 -4 -65 -15 -80 -17 -142 -23 -116 -12
-450 -5 -605 12 -22 2 -61 6 -87 9 -53 5 -71 13 -63 26 5 8 12 42 40 195 3 17
8 41 11 55 3 14 8 36 10 50 3 14 13 70 24 125 10 55 22 114 25 130 6 35 13 70
20 105 3 14 9 50 15 80 6 30 12 66 15 80 10 51 15 76 21 105 3 17 11 62 19
100 8 39 16 81 19 95 4 26 27 149 56 300 21 108 32 139 49 138 27 -1 256 14
259 17 5 5 448 -4 472 -9z"/>
<path d="M7696 7611 c-4 -6 -12 -45 -21 -96 -3 -16 -7 -41 -10 -55 -8 -41 -27
-143 -31 -165 -1 -11 -10 -55 -18 -98 -9 -44 -14 -83 -11 -87 5 -8 27 -7 105
6 138 22 221 131 221 290 0 104 -31 166 -97 193 -33 13 -132 22 -138 12z m138
-171 c19 -39 -10 -121 -63 -173 -22 -23 -43 -39 -46 -36 -4 5 0 38 20 139 3
13 7 42 10 65 11 77 14 80 41 54 14 -13 30 -35 38 -49z"/>
<path d="M7565 6929 c-2 -8 -25 -122 -50 -254 -25 -132 -48 -246 -50 -253 -3
-8 -8 -35 -11 -61 l-6 -47 39 2 c157 7 253 56 302 153 16 32 22 50 38 111 2 8
6 58 8 110 3 76 1 103 -13 132 -34 72 -87 102 -204 115 -35 4 -49 2 -53 -8z
m112 -112 c59 -33 83 -103 62 -177 -7 -25 -13 -51 -15 -58 -11 -56 -144 -183
-153 -145 -2 14 8 79 26 158 2 11 6 31 8 45 2 14 11 59 19 100 9 41 16 78 16
83 0 10 11 8 37 -6z"/>
<path d="M6016 7523 c-3 -3 -96 -13 -161 -18 -22 -1 -71 -6 -110 -10 -105 -12
-117 -13 -150 -14 -43 -2 -54 -12 -60 -56 -4 -22 -8 -47 -10 -55 -3 -8 -7 -33
-10 -55 -4 -22 -8 -47 -10 -55 -2 -8 -7 -31 -10 -50 -3 -19 -12 -66 -20 -105
-31 -159 -46 -242 -51 -280 -10 -78 -7 -301 5 -357 14 -67 62 -143 110 -175
19 -13 28 -23 20 -24 -107 -5 -193 -39 -234 -92 -33 -44 -42 -93 -40 -222 2
-156 35 -215 157 -276 114 -57 211 -73 463 -73 259 0 363 20 479 92 163 101
291 340 355 662 6 30 14 66 16 80 3 14 8 41 11 60 3 19 7 43 10 52 3 10 7 30
10 45 2 16 9 51 14 78 6 28 12 59 14 70 3 20 13 75 23 125 2 14 13 70 24 125
12 55 23 114 25 130 3 17 7 36 10 43 2 8 7 37 10 65 4 29 10 59 14 67 4 8 8
61 9 118 2 92 0 102 -16 103 -89 5 -216 -2 -313 -16 -14 -2 -61 -7 -105 -11
-44 -4 -89 -8 -100 -10 -11 -1 -36 -3 -56 -3 l-37 -1 -15 -67 c-9 -38 -19 -81
-22 -98 -3 -16 -8 -41 -11 -55 -3 -14 -14 -70 -24 -125 -11 -55 -22 -112 -25
-127 -3 -16 -7 -38 -9 -50 -3 -13 -12 -54 -21 -93 -8 -38 -18 -83 -21 -100
-13 -69 -74 -169 -91 -151 -4 4 2 62 14 129 26 142 29 162 48 257 3 14 8 41
11 60 3 19 10 54 15 78 5 23 12 59 15 80 3 20 10 53 15 73 10 42 15 216 6 225
-6 6 -166 12 -171 7z m90 -111 c-3 -15 -8 -43 -11 -62 -3 -19 -12 -66 -20
-105 -14 -72 -19 -95 -29 -155 -7 -41 -12 -68 -25 -130 -5 -25 -12 -61 -15
-80 -3 -19 -8 -46 -11 -60 -3 -14 -8 -41 -11 -60 -3 -19 -7 -41 -10 -48 -12
-38 -15 -115 -4 -147 14 -43 41 -63 95 -68 89 -10 154 86 190 279 2 10 4 21 5
24 1 3 3 10 4 15 7 40 20 108 40 205 8 41 17 86 20 100 9 47 28 145 30 155 2
6 6 31 10 57 9 50 27 74 50 65 8 -3 16 -3 19 0 3 3 27 7 54 8 26 2 68 6 93 9
67 8 137 15 208 21 58 5 63 4 59 -12 -6 -19 -13 -58 -22 -113 -4 -19 -10 -53
-15 -75 -5 -22 -11 -56 -14 -75 -3 -19 -8 -46 -11 -60 -7 -33 -53 -277 -60
-315 -2 -16 -7 -41 -10 -55 -3 -14 -7 -36 -10 -50 -2 -14 -9 -50 -15 -80 -6
-30 -13 -66 -16 -80 -2 -14 -7 -36 -10 -50 -3 -14 -8 -36 -10 -50 -17 -91 -77
-278 -115 -357 -144 -297 -345 -398 -747 -373 -281 18 -459 159 -420 334 31
138 238 205 409 132 57 -25 114 -86 80 -86 -14 0 -41 -77 -41 -116 0 -104 102
-138 192 -64 67 55 142 237 183 445 21 105 20 110 -12 76 -30 -32 -133 -77
-206 -91 -73 -13 -205 -9 -267 10 -57 16 -127 66 -154 108 -63 101 -72 220
-31 422 8 38 27 142 31 165 5 30 13 74 26 135 6 30 13 62 14 70 21 129 28 160
33 161 12 3 47 7 116 13 39 4 86 9 105 11 19 2 67 7 105 11 39 3 71 7 72 8 1
0 20 2 43 3 40 3 41 2 36 -25z m-39 -1181 c5 -2 -44 -126 -65 -167 -11 -21
-33 -53 -49 -70 -15 -16 -21 -22 -13 -11 10 13 14 43 13 105 -1 85 -1 87 -33
114 l-33 27 69 3 c63 3 105 2 111 -1z"/>
<path d="M9793 7514 c-171 -29 -285 -85 -393 -194 -122 -121 -195 -270 -223
-451 -13 -82 -16 -427 -4 -474 54 -216 189 -328 422 -351 64 -6 330 -5 370 1
27 5 93 17 105 20 138 33 269 119 374 245 35 44 113 205 126 265 20 91 26 92
27 7 0 -85 9 -142 24 -157 5 -5 9 -15 9 -23 0 -22 39 -71 83 -103 l40 -29 -34
0 c-57 0 -140 -27 -177 -58 -64 -51 -76 -88 -75 -237 0 -112 3 -137 21 -171
52 -102 198 -173 391 -190 96 -9 315 -9 405 -1 200 19 365 115 462 268 55 87
130 286 150 397 3 14 9 33 15 44 5 10 8 18 6 18 -3 0 0 21 5 48 22 115 39 210
44 242 2 19 7 49 11 65 4 17 8 39 9 50 1 11 5 34 8 50 18 104 49 271 61 335 8
41 17 93 20 115 2 22 8 53 11 70 11 48 11 195 1 202 -13 8 -158 7 -227 -2
-176 -21 -267 -26 -295 -15 -75 29 -333 32 -464 5 -47 -9 -147 -63 -207 -111
-68 -54 -139 -140 -186 -224 -39 -68 -88 -205 -88 -244 0 -16 -3 -27 -6 -24
-3 4 -7 59 -9 125 -3 133 -16 193 -56 273 -46 94 -148 171 -259 198 -116 27
-377 36 -497 16z m227 -74 c0 -3 24 -5 53 -6 204 -2 355 -97 416 -259 26 -70
35 -129 35 -240 -1 -341 -142 -607 -389 -733 -107 -55 -203 -76 -350 -76 -145
0 -178 4 -250 29 -74 26 -116 49 -156 87 -94 88 -133 204 -133 388 1 217 47
367 160 526 79 112 219 212 345 248 100 29 269 51 269 36z m1480 -27 c25 -11
54 -18 65 -17 11 2 52 6 90 9 39 4 86 8 105 11 19 2 58 6 85 8 28 3 77 8 109
11 l59 7 -7 -44 c-5 -24 -10 -56 -12 -73 -3 -16 -11 -64 -19 -105 -16 -83 -53
-298 -60 -345 -3 -16 -7 -41 -10 -55 -3 -14 -14 -77 -25 -140 -31 -172 -33
-183 -36 -205 -1 -11 -3 -20 -4 -20 -1 0 -3 -11 -6 -24 -32 -175 -126 -422
-192 -503 -54 -67 -89 -101 -140 -135 -64 -42 -190 -87 -272 -97 -66 -8 -255
-8 -290 -1 -14 3 -41 7 -60 10 -130 15 -267 93 -306 174 -23 46 -25 57 -24
108 0 59 14 89 59 132 46 44 133 73 208 70 66 -3 165 -36 203 -68 l31 -26 -26
-47 c-41 -74 -31 -154 23 -181 87 -44 187 35 246 193 13 36 27 74 32 85 4 11
8 22 9 25 2 9 15 64 20 88 10 47 14 61 24 98 20 72 16 79 -26 45 -75 -60 -173
-88 -303 -88 -252 0 -373 115 -373 352 1 112 22 215 72 340 82 203 255 370
438 420 74 20 256 14 313 -12z m-262 -1206 c-26 -84 -77 -182 -107 -209 -20
-18 -22 -19 -10 -3 11 14 15 41 15 97 -1 67 -4 80 -25 102 -14 14 -32 27 -40
28 -9 1 20 4 64 7 43 3 87 7 96 8 15 1 16 -3 7 -30z"/>
<path d="M9922 7280 c-59 -36 -100 -118 -139 -277 -14 -60 -27 -117 -29 -128
-4 -36 -15 -89 -24 -125 -20 -81 -34 -307 -24 -383 12 -91 79 -127 162 -86 68
34 131 188 167 409 4 19 14 82 24 140 9 58 17 129 17 158 -1 28 1 52 4 52 9 0
1 163 -10 196 -6 18 -18 38 -26 45 -24 20 -89 19 -122 -1z m72 -198 c0 -70 -7
-135 -17 -187 -3 -11 -8 -40 -12 -65 -9 -52 -8 -51 -29 -151 -30 -144 -94
-299 -122 -299 -23 0 -32 84 -19 180 11 84 18 126 21 131 2 4 6 24 9 45 6 45
12 78 19 102 3 9 7 29 10 43 10 59 49 185 60 191 6 4 8 8 3 8 -9 0 18 54 41
80 26 31 37 7 36 -78z"/>
<path d="M11396 7306 c-57 -21 -103 -72 -146 -161 -62 -130 -90 -257 -95 -430
-6 -157 14 -212 80 -220 24 -3 82 28 109 58 46 52 59 86 80 202 3 17 8 41 11
55 3 14 8 36 10 50 3 23 17 93 30 150 3 14 8 39 11 55 3 17 12 64 21 105 23
114 25 128 14 134 -22 14 -89 15 -125 2z m10 -153 c-4 -16 -8 -39 -11 -53 -3
-14 -9 -47 -15 -75 -5 -27 -12 -65 -15 -83 -3 -18 -12 -65 -21 -105 -8 -39
-17 -79 -19 -88 -6 -27 -33 -83 -53 -108 l-19 -24 -11 31 c-6 17 -9 32 -7 34
2 1 6 30 9 63 6 65 6 67 31 170 20 80 75 203 107 240 27 32 31 31 24 -2z"/>
</g>
</svg>
